<?xml version="1.0" encoding="UTF-8"?>
<svg version="1.1" xmlns="http://www.w3.org/2000/svg" width="512" height="512">
<path d="M0 0 C168.96 0 337.92 0 512 0 C512 168.96 512 337.92 512 512 C343.04 512 174.08 512 0 512 C0 343.04 0 174.08 0 0 Z " fill="#0A0A0A" transform="translate(0,0)"/>
<path d="M0 0 C26.07 0 52.14 0 79 0 C102.78838143 53.4400963 102.78838143 53.4400963 113.81915283 78.72354126 C115.56253872 82.71823291 117.31149686 86.71024636 119.07568359 90.69580078 C130.05110241 115.49267013 140.11184294 140.42989513 146 167 C147.49287057 157.91868647 148.60626382 148.84584057 149.5 139.6875 C151.36475088 120.7633523 154.02114377 102.07922368 157.0625 83.3125 C157.256091 82.11197998 157.44968201 80.91145996 157.6491394 79.67456055 C161.93684944 53.08825847 166.45583496 26.54369418 171 0 C195.75 0 220.5 0 246 0 C245.154375 5.61 244.30875 11.22 243.4375 17 C243.06322876 19.50787109 243.06322876 19.50787109 242.68139648 22.06640625 C240.91542926 33.73886743 238.90326842 45.36351641 236.8515625 56.98828125 C232.58233553 81.18361975 228.55270867 105.41808622 224.52496338 129.65460205 C223.74125082 134.36770686 222.95571774 139.08050747 222.17017365 143.7933073 C218.50732697 165.77103688 214.86326405 187.75122671 211.31604958 209.74793625 C209.34666984 221.95316753 207.28532147 234.13955326 205.125 246.3125 C204.09375 252.149375 203.0625 257.98625 202 264 C175.93 264 149.86 264 123 264 C120.298125 257.833125 117.59625 251.66625 114.8125 245.3125 C109.40303829 232.977546 103.97175453 220.65454681 98.4375 208.375 C96.28590667 203.58590295 94.13980445 198.79437523 92 194 C91.66937561 193.25923218 91.33875122 192.51846436 90.99810791 191.75524902 C82.27625587 172.19258314 73.68957638 152.71230318 66.82421875 132.40478516 C66.09252294 130.26994992 65.32689679 128.15461972 64.53125 126.04296875 C62.0435291 119.40651818 60.01319952 112.71815441 58.1875 105.875 C57.96803711 105.05596191 57.74857422 104.23692383 57.52246094 103.39306641 C57.32297852 102.62140137 57.12349609 101.84973633 56.91796875 101.0546875 C56.74031982 100.36874512 56.5626709 99.68280273 56.37963867 98.97607422 C56 97 56 97 56 93 C55.34 93 54.68 93 54 93 C54.02030273 93.63856934 54.04060547 94.27713867 54.06152344 94.93505859 C54.22961344 104.90553988 53.24608525 114.71845486 52.25 124.625 C52.11411972 125.99523819 52.11411972 125.99523819 51.97549438 127.39315796 C50.61170835 141.06727256 48.91753547 154.62518544 46.63330078 168.17871094 C45.86310097 172.82603842 45.13140752 177.47888296 44.40234375 182.1328125 C41.38977742 201.32866705 38.29335281 220.50631352 34.95361328 239.64819336 C34.83658554 240.32068115 34.7195578 240.99316895 34.59898376 241.68603516 C34.28966031 243.46077899 33.97830497 245.23516837 33.66674805 247.00952148 C32.72197687 252.66396489 31.87171776 258.33383455 31 264 C6.58 264 -17.84 264 -43 264 C-43 258.45708353 -42.8431852 254.0564109 -41.95629883 248.72192383 C-41.84327706 248.03128499 -41.7302553 247.34064615 -41.61380863 246.62907887 C-41.23438199 244.32066363 -40.84572928 242.01390204 -40.45703125 239.70703125 C-40.17778703 238.02111384 -39.89908686 236.33510625 -39.62088013 234.64901733 C-38.85415674 230.01302853 -38.07917715 225.37845231 -37.30277634 220.74407578 C-36.64328715 216.80070265 -35.9888113 212.85650447 -35.33440113 208.9122858 C-31.22227468 184.1294572 -27.05488414 159.35584277 -22.89032102 134.58178258 C-22.53902587 132.49196961 -22.18776777 130.40215041 -21.83651543 128.31233025 C-19.5286625 114.58195065 -17.21928789 100.85183416 -14.9011488 87.12318707 C-13.81689881 80.70083575 -12.73431337 74.27820459 -11.65234375 67.85546875 C-11.44610445 66.6319124 -11.23986515 65.40835606 -11.02737617 64.14772224 C-8.14083829 47.00661526 -5.33718728 29.85485195 -2.71482849 12.67118835 C-2.60335669 11.94813444 -2.49188488 11.22508053 -2.37703514 10.48011589 C-2.08423087 8.57917774 -1.79525225 6.67765139 -1.50660706 4.77607727 C-1 2 -1 2 0 0 Z " fill="#FDFDFD" transform="translate(136,125)"/>
<path d="M0 0 C7.78902465 5.50679625 13.63065529 12.26800216 15.81640625 21.7109375 C16.739092 30.98487077 16.48469598 39.40370144 11.81640625 47.7109375 C11.16285156 48.89623047 11.16285156 48.89623047 10.49609375 50.10546875 C5.09324995 59.00687534 -3.07777872 64.43996602 -13.06933594 67.23925781 C-23.02353789 69.45998739 -33.89762837 68.73883476 -42.6953125 63.54296875 C-49.58919684 58.46725171 -53.13979299 52.59863623 -56.18359375 44.7109375 C-56.51359375 44.0509375 -56.84359375 43.3909375 -57.18359375 42.7109375 C-58.08291841 30.2235934 -57.0160722 19.54228327 -48.8125 9.48828125 C-36.55198503 -3.88949887 -16.46218191 -9.7182827 0 0 Z " fill="#FC0000" transform="translate(411.18359375,325.2890625)"/>
</svg>
