<?xml version="1.0" encoding="UTF-8"?>
<svg version="1.1" xmlns="http://www.w3.org/2000/svg" width="512" height="512">
<path d="M0 0 C168.96 0 337.92 0 512 0 C512 168.96 512 337.92 512 512 C343.04 512 174.08 512 0 512 C0 343.04 0 174.08 0 0 Z " fill="#1B1B1B" transform="translate(0,0)"/>
<path d="M0 0 C-1.485 1.98 -1.485 1.98 -3 4 C-2.34 3.67 -1.68 3.34 -1 3 C-2.53844363 6.5897018 -4.71511548 9.03837897 -7.375 11.875 C-9.91075311 14.62544148 -12.30804763 17.23568597 -14.25 20.4375 C-16.21385971 23.31315172 -18.0416831 24.25535157 -21 26 C-23.08381886 28.90246198 -24.34933149 31.48639005 -25 35 C-21.24848856 33.21092278 -21.24848856 33.21092278 -19.1875 29.8125 C-19.125625 29.214375 -19.06375 28.61625 -19 28 C-18.34 28 -17.68 28 -17 28 C-17 27.34 -17 26.68 -17 26 C-15.35 26 -13.7 26 -12 26 C-12 28 -12 28 -14.25 30.3125 C-15.1575 31.199375 -16.065 32.08625 -17 33 C-19.9187092 36.16581238 -19.9187092 36.16581238 -21.4375 40.0625 C-22.31192356 43.07440338 -24.52928682 44.22615464 -27 46 C-26.67 46.66 -26.34 47.32 -26 48 C-28.625 51.875 -28.625 51.875 -32 53 C-33.06775224 54.96466413 -34.06553465 56.96855359 -35 59 C-35.66 59.99 -36.32 60.98 -37 62 C-37.66 62 -38.32 62 -39 62 C-39 62.66 -39 63.32 -39 64 C-37.515 63.505 -37.515 63.505 -36 63 C-36.33 64.65 -36.66 66.3 -37 68 C-38.485 68.495 -38.485 68.495 -40 69 C-40.66 69.66 -41.32 70.32 -42 71 C-41.34 71.33 -40.68 71.66 -40 72 C-41 75 -41 75 -44 77 C-43.67 77.99 -43.34 78.98 -43 80 C-43.99 80 -44.98 80 -46 80 C-46 80.99 -46 81.98 -46 83 C-46.66 83 -47.32 83 -48 83 C-48.33 83.66 -48.66 84.32 -49 85 C-48.34 85.33 -47.68 85.66 -47 86 C-47.66 87.98 -48.32 89.96 -49 92 C-49.33 91.34 -49.66 90.68 -50 90 C-50.66 90 -51.32 90 -52 90 C-51.67 91.32 -51.34 92.64 -51 94 C-52.485 94.495 -52.485 94.495 -54 95 C-53.67 96.65 -53.34 98.3 -53 100 C-53.7425 100.103125 -54.485 100.20625 -55.25 100.3125 C-58.17014018 101.04253504 -59.73187554 102.06789398 -62 104 C-61.34 104.66 -60.68 105.32 -60 106 C-60 107.32 -60 108.64 -60 110 C-60.66 110.33 -61.32 110.66 -62 111 C-62.69637738 112.6912022 -63.39162465 114.38288944 -64.078125 116.078125 C-65.58768386 119.22517143 -67.59732647 121.47411245 -70 124 C-70.66 124 -71.32 124 -72 124 C-72 125.32 -72 126.64 -72 128 C-74.3125 130.5 -74.3125 130.5 -77 133 C-77.556875 133.763125 -78.11375 134.52625 -78.6875 135.3125 C-79.120625 135.869375 -79.55375 136.42625 -80 137 C-80.66 137 -81.32 137 -82 137 C-81.75765625 137.52207031 -81.5153125 138.04414063 -81.265625 138.58203125 C-80.86045778 142.27024459 -82.8519238 144.68086309 -84.75 147.6875 C-87.96836385 153.01199902 -90.33463361 157.96304682 -92 164 C-92.99 164 -93.98 164 -95 164 C-94.9690625 165.423125 -94.9690625 165.423125 -94.9375 166.875 C-95 170 -95 170 -96 172 C-96.99 172 -97.98 172 -99 172 C-99.185625 173.2065625 -99.185625 173.2065625 -99.375 174.4375 C-99.58125 175.283125 -99.7875 176.12875 -100 177 C-100.66 177.33 -101.32 177.66 -102 178 C-102 179.32 -102 180.64 -102 182 C-102.66 182.33 -103.32 182.66 -104 183 C-104.56134328 185.27655884 -104.89246368 187.55324334 -105.2421875 189.87109375 C-106 192 -106 192 -108.046875 193.07421875 C-109.01367188 193.53248047 -109.01367188 193.53248047 -110 194 C-110.12375 195.11375 -110.2475 196.2275 -110.375 197.375 C-111 201 -111 201 -113.875 203.0625 C-114.90625 203.701875 -115.9375 204.34125 -117 205 C-119.01041003 207.93449408 -119.01041003 207.93449408 -120 211 C-119.67 211.99 -119.34 212.98 -119 214 C-119.66 214.33 -120.32 214.66 -121 215 C-121.70626239 216.98636298 -122.36893571 218.98848259 -123 221 C-123.66666667 222.33333333 -124.33333333 223.66666667 -125 225 C-125.2165625 226.0209375 -125.2165625 226.0209375 -125.4375 227.0625 C-126 229 -126 229 -127.375 230.3125 C-129.77660603 232.80647549 -130.67512382 235.83181783 -132 239 C-132.66 239.66 -133.32 240.32 -134 241 C-134.309375 242.010625 -134.61875 243.02125 -134.9375 244.0625 C-135.288125 245.031875 -135.63875 246.00125 -136 247 C-136.99 247.33 -137.98 247.66 -139 248 C-138.896875 248.804375 -138.79375 249.60875 -138.6875 250.4375 C-139.1224377 255.39578974 -141.40645419 258.83180138 -144 263 C-144.66 263 -145.32 263 -146 263 C-146.33 264.98 -146.66 266.96 -147 269 C-147.66 269 -148.32 269 -149 269 C-148.896875 269.825 -148.79375 270.65 -148.6875 271.5 C-149.06078265 275.68076567 -150.46575254 277.59902678 -152.7734375 280.99609375 C-154.20914255 283.14092604 -154.20914255 283.14092604 -155 286.5 C-156.07790687 290.27267406 -157.6842453 292.82803934 -159.82421875 296.06640625 C-161.35579079 298.58510446 -162.22102778 301.16737373 -163 304 C-163.66 304 -164.32 304 -165 304 C-165.33 304.99 -165.66 305.98 -166 307 C-167.33333333 308.33333333 -168.66666667 309.66666667 -170 311 C-170.33 311.99 -170.66 312.98 -171 314 C-172.99371825 315.34270821 -174.9934562 316.67653494 -177 318 C-177 318.66 -177 319.32 -177 320 C-180 322 -180 322 -184 322 C-183.34 322.66 -182.68 323.32 -182 324 C-188.625 325.125 -188.625 325.125 -192 324 C-192.55196045 324.13801025 -193.1039209 324.27602051 -193.67260742 324.41821289 C-199.4172566 325.85422453 -205.81942479 325.34933963 -211.7253418 325.4050293 C-213.4449471 325.42661158 -215.16444247 325.46071788 -216.88354492 325.50756836 C-219.37728335 325.57481147 -221.86876238 325.60206119 -224.36328125 325.62109375 C-225.12393387 325.64892441 -225.88458649 325.67675507 -226.66828918 325.70542908 C-231.98011795 325.68516629 -234.69765104 324.24874984 -238.58317566 320.65687561 C-241.17534019 317.62552299 -243 314.0637419 -243 310 C-243.66 310 -244.32 310 -245 310 C-245.30744141 308.75283203 -245.30744141 308.75283203 -245.62109375 307.48046875 C-245.89050781 306.39378906 -246.15992188 305.30710937 -246.4375 304.1875 C-246.83775391 302.56908203 -246.83775391 302.56908203 -247.24609375 300.91796875 C-247.76077412 298.9259157 -248.34937175 296.95188476 -249 295 C-251.43638325 279.32849586 -251.30798292 263.57630462 -251.25390625 247.75598145 C-251.24868691 245.0756875 -251.25842782 242.39552468 -251.26764679 239.71524811 C-251.34448169 213.22441593 -251.34448169 213.22441593 -249 201 C-249.45375 201.495 -249.9075 201.99 -250.375 202.5 C-252 204 -252 204 -254 204 C-254.15855469 204.53367187 -254.31710938 205.06734375 -254.48046875 205.6171875 C-256.15480457 210.96396155 -258.29655268 215.73890926 -261.01171875 220.640625 C-262.17590843 222.98921401 -262.17590843 222.98921401 -261.98828125 225.703125 C-261.99214844 226.46109375 -261.99601562 227.2190625 -262 228 C-263.66666667 229 -265.33333333 230 -267 231 C-267.042721 232.66611905 -267.04063832 234.33382885 -267 236 C-268.30887458 237.35735142 -269.64852862 238.68505488 -271 240 C-273.93200267 244.52585296 -276.13935917 248.63754558 -277 254 C-277.99 254 -278.98 254 -280 254 C-279.690625 254.928125 -279.690625 254.928125 -279.375 255.875 C-279.25125 256.57625 -279.1275 257.2775 -279 258 C-279.66 258.66 -280.32 259.32 -281 260 C-281.33 259.67 -281.66 259.34 -282 259 C-282.66 261.64 -283.32 264.28 -284 267 C-284.66 267 -285.32 267 -286 267 C-285.938125 267.928125 -285.87625 268.85625 -285.8125 269.8125 C-286 273 -286 273 -287.4375 274.625 C-287.953125 275.07875 -288.46875 275.5325 -289 276 C-289.165 276.66 -289.33 277.32 -289.5 278 C-290 280 -290 280 -291.38989258 281.31958008 C-293.3444052 283.35944518 -294.17308922 285.28347421 -295.26171875 287.88671875 C-295.85629883 289.2934082 -295.85629883 289.2934082 -296.46289062 290.72851562 C-296.86701172 291.70498047 -297.27113281 292.68144531 -297.6875 293.6875 C-298.10322266 294.67556641 -298.51894531 295.66363281 -298.94726562 296.68164062 C-299.97142239 299.11842741 -300.98870265 301.55785486 -302 304 C-302.99 304 -303.98 304 -305 304 C-307.69559598 310.98937139 -310.38475141 317.98012221 -313 325 C-313.66 325 -314.32 325 -315 325 C-315 323.68 -315 322.36 -315 321 C-316.32 324.3 -317.64 327.6 -319 331 C-320 328 -320 328 -319 325 C-319.66 325 -320.32 325 -321 325 C-321.33 325.66 -321.66 326.32 -322 327 C-322.33 326.34 -322.66 325.68 -323 325 C-323.33 325.99 -323.66 326.98 -324 328 C-326.31 328 -328.62 328 -331 328 C-330.67 325.03 -330.34 322.06 -330 319 C-330.391875 319.78375 -330.78375 320.5675 -331.1875 321.375 C-333.24274669 324.35156418 -334.59679258 324.98823563 -338 326 C-338 324.35 -338 322.7 -338 321 C-338.66 321.99 -339.32 322.98 -340 324 C-340.99 324.33 -341.98 324.66 -343 325 C-343.66 325.99 -344.32 326.98 -345 328 C-345.10834375 323.55790643 -344.70173653 319.38585329 -344 315 C-344.66 315 -345.32 315 -346 315 C-346.185625 316.2065625 -346.185625 316.2065625 -346.375 317.4375 C-346.58125 318.283125 -346.7875 319.12875 -347 320 C-347.66 320.33 -348.32 320.66 -349 321 C-349.26088977 314.18787826 -349.04331041 307.55877415 -347 301 C-346.34 300.34 -345.68 299.68 -345 299 C-344.56988175 296.91574539 -344.13988297 294.83146606 -343.71044922 292.74707031 C-342.28382733 287.23079902 -339.84440581 282.08151617 -337.5625 276.875 C-337.02355376 275.63502998 -336.48465473 274.39503943 -335.94580078 273.1550293 C-329.19738237 257.69559627 -322.29189255 242.41068679 -313.48999023 227.99951172 C-310.36487039 222.81952712 -307.92755372 217.52523631 -305.61010742 211.9453125 C-303.57266567 207.11300244 -301.19245949 202.59712374 -298.5625 198.0625 C-295.4932847 192.76997194 -292.72257486 187.44311085 -290.1875 181.875 C-286.19026406 173.13257282 -281.59027808 164.75903448 -276.9375 156.3515625 C-274.75846538 152.40941439 -272.66413401 148.43469736 -270.61474609 144.42407227 C-263.30364071 130.18692435 -254.68747518 115.97734287 -244 104 C-243.50113281 103.41734375 -243.00226563 102.8346875 -242.48828125 102.234375 C-241.99714844 101.82703125 -241.50601563 101.4196875 -241 101 C-237.8125 101.3125 -237.8125 101.3125 -235 102 C-235 101.34 -235 100.68 -235 100 C-228.22851513 98.75625788 -222.65610897 99.66877821 -216 101 C-215.34 101 -214.68 101 -214 101 C-213.67 101.66 -213.34 102.32 -213 103 C-209.97065509 103.65772428 -209.97065509 103.65772428 -207 104 C-207 104.99 -207 105.98 -207 107 C-206.01 107 -205.02 107 -204 107 C-204 108.32 -204 109.64 -204 111 C-203.34 111 -202.68 111 -202 111 C-201.67 114.63 -201.34 118.26 -201 122 C-201.99 122.495 -201.99 122.495 -203 123 C-202.89389404 124.83232178 -202.89389404 124.83232178 -202.78564453 126.70166016 C-202.00861107 140.9328743 -201.84273657 155.12497056 -201.875 169.375 C-201.87632935 171.09009766 -201.87632935 171.09009766 -201.87768555 172.83984375 C-201.8905726 187.06715164 -202.06825927 201.25856231 -202.63964844 215.47436523 C-203.07750946 227.12802025 -203.11455211 238.77670999 -203.125 250.4375 C-203.12749756 251.40550537 -203.12999512 252.37351074 -203.13256836 253.37084961 C-203.13847859 256.14180056 -203.13696578 258.91264147 -203.1328125 261.68359375 C-203.13479645 262.50621201 -203.1367804 263.32883026 -203.13882446 264.17637634 C-203.11881383 269.20199069 -202.71583339 274.02435372 -202 279 C-199.2390719 276.52726357 -197.59472519 273.81354204 -195.76953125 270.6015625 C-194.8249707 268.9455603 -194.8249707 268.9455603 -193.86132812 267.25610352 C-193.17813683 266.04587598 -192.49520139 264.83550397 -191.8125 263.625 C-191.09720655 262.36438769 -190.38170813 261.10389166 -189.66601562 259.84350586 C-181.29911146 245.08057603 -173.14065995 230.20192527 -164.98388672 215.32226562 C-145.40494368 179.61372523 -125.59928382 143.87489908 -100.76953125 111.484375 C-99.25336142 109.35571273 -98.16266125 107.4427277 -97.125 105.0625 C-94.74543964 99.8403879 -90.71111482 95.76423866 -86.984375 91.47265625 C-84.11567118 88.16325569 -81.38118262 84.76516235 -78.6875 81.3125 C-78.24349854 80.744104 -77.79949707 80.17570801 -77.34204102 79.59008789 C-75.89188555 77.72888889 -74.44539103 75.86490132 -73 74 C-51.84006584 46.70155984 -51.84006584 46.70155984 -45 40 C-40.74684296 35.81812492 -36.68494992 31.70148783 -33 27 C-31.34295033 25.32377151 -29.67503904 23.65825202 -28 22 C-26.43644933 20.41509833 -24.87396741 18.82914167 -23.3125 17.2421875 C-21.54180269 15.45299037 -19.77096543 13.66393174 -18 11.875 C-16.66582031 10.51568359 -16.66582031 10.51568359 -15.3046875 9.12890625 C-14.44101562 8.25878906 -13.57734375 7.38867188 -12.6875 6.4921875 C-11.90761719 5.70183105 -11.12773437 4.91147461 -10.32421875 4.09716797 C-4.22329272 -1.40776424 -4.22329272 -1.40776424 0 0 Z " fill="#FCFCFC" transform="translate(437,58)"/>
<path d="M0 0 C2.83554232 0.99084168 5.67808565 1.58929098 8.61328125 2.22265625 C13.80975374 3.4769772 16.79979674 4.91950636 20.42578125 8.84765625 C20.42578125 9.50765625 20.42578125 10.16765625 20.42578125 10.84765625 C21.49828125 10.82703125 22.57078125 10.80640625 23.67578125 10.78515625 C27.42578125 11.84765625 27.42578125 11.84765625 28.640625 13.6015625 C29.6741118 15.98812841 30.56201478 18.39470906 31.42578125 20.84765625 C32.11722182 22.5214017 32.82492126 24.1885477 33.55078125 25.84765625 C33.86273438 26.59015625 34.1746875 27.33265625 34.49609375 28.09765625 C35.30522257 30.02907279 35.30522257 30.02907279 37.42578125 30.84765625 C34.0637867 42.91128377 26.87936348 51.82215748 18.78125 61.09765625 C16.36961447 63.80192498 16.36961447 63.80192498 14.42578125 66.84765625 C0.91415782 67.7847802 -16.49564296 64.84105904 -27.57421875 56.84765625 C-28.20585937 56.40679687 -28.8375 55.9659375 -29.48828125 55.51171875 C-34.35310492 51.76476945 -36.94275562 47.3256048 -39.57421875 41.84765625 C-40.02796875 41.02265625 -40.48171875 40.19765625 -40.94921875 39.34765625 C-43.21631103 30.27928712 -38.4614687 21.04947848 -34.15625 13.29296875 C-26.04561313 0.37683389 -14.79360282 -5.64942203 0 0 Z " fill="#FD3030" transform="translate(348.57421875,306.15234375)"/>
<path d="M0 0 C1.32 0 2.64 0 4 0 C3.67 1.65 3.34 3.3 3 5 C2.01 5.33 1.02 5.66 0 6 C-0.66 6.66 -1.32 7.32 -2 8 C-1.34 8.33 -0.68 8.66 0 9 C-1 12 -1 12 -4 14 C-3.67 14.99 -3.34 15.98 -3 17 C-3.99 17 -4.98 17 -6 17 C-6 17.99 -6 18.98 -6 20 C-6.99 19.67 -7.98 19.34 -9 19 C-8.34 18.67 -7.68 18.34 -7 18 C-7.25136719 16.96939453 -7.25136719 16.96939453 -7.5078125 15.91796875 C-7.71148437 15.01691406 -7.91515625 14.11585938 -8.125 13.1875 C-8.33382813 12.29417969 -8.54265625 11.40085938 -8.7578125 10.48046875 C-9 8 -9 8 -7 5 C-5.68 5.33 -4.36 5.66 -3 6 C-2.690625 5.195625 -2.38125 4.39125 -2.0625 3.5625 C-1 1 -1 1 0 0 Z " fill="#B1B1B1" transform="translate(397,121)"/>
<path d="M0 0 C-0.33 1.32 -0.66 2.64 -1 4 C-1.66 4 -2.32 4 -3 4 C-3 4.66 -3 5.32 -3 6 C-3.66 6 -4.32 6 -5 6 C-5.061875 6.78375 -5.12375 7.5675 -5.1875 8.375 C-5.5896875 9.674375 -5.5896875 9.674375 -6 11 C-8.5625 12.3125 -8.5625 12.3125 -11 13 C-10.46744565 8.47328804 -8.78440128 5.5799445 -6 2 C-3.76335858 0.55276143 -2.64566409 0 0 0 Z " fill="#323232" transform="translate(423,80)"/>
<path d="M0 0 C0.33 0 0.66 0 1 0 C1 11.88 1 23.76 1 36 C0.67 36 0.34 36 0 36 C0 25.77 0 15.54 0 5 C-0.99 4.67 -1.98 4.34 -3 4 C-3 3.34 -3 2.68 -3 2 C-2.34 2 -1.68 2 -1 2 C-0.67 1.34 -0.34 0.68 0 0 Z " fill="#DFDFDF" transform="translate(232,293)"/>
<path d="M0 0 C0.66 1.98 1.32 3.96 2 6 C1.01 6.495 1.01 6.495 0 7 C0 6.34 0 5.68 0 5 C-0.66 5 -1.32 5 -2 5 C-1.67 6.32 -1.34 7.64 -1 9 C-2.32 9.33 -3.64 9.66 -5 10 C-6.10844919 6.67465243 -5.84454356 4.37817425 -5 1 C-2 0 -2 0 0 0 Z " fill="#D1D1D1" transform="translate(387,143)"/>
<path d="M0 0 C1.32 0 2.64 0 4 0 C3.67 1.65 3.34 3.3 3 5 C2.01 5.33 1.02 5.66 0 6 C-1.35622245 6.96873032 -2.69417053 7.96434215 -4 9 C-4 4.9209831 -2.51258248 3.14072811 0 0 Z " fill="#888888" transform="translate(397,121)"/>
<path d="M0 0 C1.1875 1.5 1.1875 1.5 2 4 C1.27101296 6.78824238 0.1843275 9.37665092 -1 12 C-1.99 11.34 -2.98 10.68 -4 10 C-4 8 -4 8 -2 6 C-1.28591666 4.01643517 -0.61382258 2.01684563 0 0 Z " fill="#A8A8A8" transform="translate(139,344)"/>
<path d="M0 0 C1.65 0 3.3 0 5 0 C5 0.66 5 1.32 5 2 C3.04072937 3.7143618 1.04119788 5.38405168 -1 7 C-1.33 5.35 -1.66 3.7 -2 2 C-1.34 2 -0.68 2 0 2 C0 1.34 0 0.68 0 0 Z " fill="#D6D6D6" transform="translate(420,84)"/>
<path d="M0 0 C0 3.58912412 -0.66436554 4.10857029 -3 6.6875 C-3.556875 7.31011719 -4.11375 7.93273437 -4.6875 8.57421875 C-5.120625 9.04472656 -5.55375 9.51523438 -6 10 C-6.99 9.34 -7.98 8.68 -9 8 C-3.85714286 1.42857143 -3.85714286 1.42857143 0 0 Z " fill="#B4B4B4" transform="translate(435,61)"/>
<path d="M0 0 C0.99 0.33 1.98 0.66 3 1 C2.25 7.75 2.25 7.75 0 10 C0.33 8.02 0.66 6.04 1 4 C0.34 4 -0.32 4 -1 4 C-1.33 4.66 -1.66 5.32 -2 6 C-2 5.01 -2 4.02 -2 3 C-1.34 2.67 -0.68 2.34 0 2 C0 1.34 0 0.68 0 0 Z " fill="#D8D8D8" transform="translate(117,379)"/>
<path d="M0 0 C0.66 0.33 1.32 0.66 2 1 C1.01 2.485 1.01 2.485 0 4 C0.66 4 1.32 4 2 4 C0.25 7.875 0.25 7.875 -2 9 C-2.6875 6.1875 -2.6875 6.1875 -3 3 C-1.5625 1.125 -1.5625 1.125 0 0 Z " fill="#7A7A7A" transform="translate(412,101)"/>
<path d="M0 0 C0.66 1.32 1.32 2.64 2 4 C1.01 4.66 0.02 5.32 -1 6 C-1.66 6.99 -2.32 7.98 -3 9 C-3.36923077 3.46153846 -3.36923077 3.46153846 -1.5 1.125 C-1.005 0.75375 -0.51 0.3825 0 0 Z " fill="#CCCCCC" transform="translate(95,377)"/>
<path d="M0 0 C0.33 0.99 0.66 1.98 1 3 C-0.32 4.32 -1.64 5.64 -3 7 C-3.33 6.01 -3.66 5.02 -4 4 C-2 1 -2 1 0 0 Z " fill="#7D7D7D" transform="translate(132,366)"/>
</svg>
